<svg width="44" height="44" viewBox="0 0 44 44" fill="none" xmlns="http://www.w3.org/2000/svg">
<circle cx="22" cy="22" r="22" fill="#8E24AA"/>
<path d="M22.8066 30.1218H17.2424C13.9883 30.1218 12.8333 27.8393 12.8333 25.7126V18.2876C12.8333 15.1159 14.0708 13.8784 17.2424 13.8784H22.8066C25.9783 13.8784 27.2158 15.1159 27.2158 18.2876V25.7126C27.2158 28.8843 25.9783 30.1218 22.8066 30.1218ZM17.2424 15.2718C14.8499 15.2718 14.2266 15.8951 14.2266 18.2876V25.7126C14.2266 26.8401 14.6208 28.7284 17.2424 28.7284H22.8066C25.1991 28.7284 25.8224 28.1051 25.8224 25.7126V18.2876C25.8224 15.8951 25.1991 15.2718 22.8066 15.2718H17.2424Z" fill="white"/>
<path d="M30.0482 27.6008C29.654 27.6008 29.1499 27.4725 28.5724 27.0691L26.1249 25.355C25.9415 25.2266 25.8315 25.0158 25.8315 24.7866V19.2133C25.8315 18.9841 25.9415 18.7733 26.1249 18.645L28.5724 16.9308C29.6632 16.17 30.4607 16.39 30.8365 16.5825C31.2124 16.7841 31.854 17.3066 31.854 18.6358V25.355C31.854 26.6841 31.2124 27.2158 30.8365 27.4083C30.6624 27.5091 30.3874 27.6008 30.0482 27.6008ZM27.2157 24.42L29.3699 25.9233C29.7824 26.2075 30.0757 26.235 30.1949 26.1708C30.3232 26.1066 30.4607 25.85 30.4607 25.355V18.645C30.4607 18.1408 30.314 17.8933 30.1949 17.8291C30.0757 17.765 29.7824 17.7925 29.3699 18.0766L27.2157 19.58V24.42Z" fill="white"/>
<path d="M21.5417 21.7708C20.4051 21.7708 19.4792 20.8449 19.4792 19.7083C19.4792 18.5716 20.4051 17.6458 21.5417 17.6458C22.6784 17.6458 23.6042 18.5716 23.6042 19.7083C23.6042 20.8449 22.6784 21.7708 21.5417 21.7708ZM21.5417 19.0208C21.1659 19.0208 20.8542 19.3324 20.8542 19.7083C20.8542 20.0841 21.1659 20.3958 21.5417 20.3958C21.9176 20.3958 22.2292 20.0841 22.2292 19.7083C22.2292 19.3324 21.9176 19.0208 21.5417 19.0208Z" fill="white"/>
</svg>
