<svg width="44" height="44" viewBox="0 0 44 44" fill="none" xmlns="http://www.w3.org/2000/svg">
<circle cx="22" cy="22" r="22" fill="#8E24AA"/>
<path d="M21.9999 25.8958C19.5983 25.8958 17.6458 23.9433 17.6458 21.5416V16.4999C17.6458 14.0983 19.5983 12.1458 21.9999 12.1458C24.4016 12.1458 26.3541 14.0983 26.3541 16.4999V21.5416C26.3541 23.9433 24.4016 25.8958 21.9999 25.8958ZM21.9999 13.5208C20.3591 13.5208 19.0208 14.8591 19.0208 16.4999V21.5416C19.0208 23.1824 20.3591 24.5208 21.9999 24.5208C23.6408 24.5208 24.9791 23.1824 24.9791 21.5416V16.4999C24.9791 14.8591 23.6408 13.5208 21.9999 13.5208Z" fill="white"/>
<path d="M22 29.1043C17.7559 29.1043 14.3 25.6484 14.3 21.4043V19.8459C14.3 19.4701 14.6117 19.1584 14.9875 19.1584C15.3634 19.1584 15.675 19.4701 15.675 19.8459V21.4043C15.675 24.8876 18.5167 27.7293 22 27.7293C25.4834 27.7293 28.325 24.8876 28.325 21.4043V19.8459C28.325 19.4701 28.6367 19.1584 29.0125 19.1584C29.3884 19.1584 29.7 19.4701 29.7 19.8459V21.4043C29.7 25.6484 26.2442 29.1043 22 29.1043Z" fill="white"/>
<path d="M23.2741 17.5816C23.2008 17.5816 23.1183 17.5725 23.0358 17.545C22.3666 17.2975 21.6333 17.2975 20.9641 17.545C20.6066 17.6733 20.2125 17.49 20.0841 17.1325C19.9558 16.775 20.1391 16.3808 20.4966 16.2525C21.4683 15.9041 22.5408 15.9041 23.5125 16.2525C23.87 16.3808 24.0533 16.775 23.925 17.1325C23.815 17.4075 23.5491 17.5816 23.2741 17.5816Z" fill="white"/>
<path d="M22.7333 19.525C22.6692 19.525 22.6142 19.5158 22.55 19.4975C22.1833 19.3966 21.8075 19.3966 21.4408 19.4975C21.0742 19.5983 20.6983 19.3783 20.5975 19.0116C20.4967 18.6541 20.7167 18.2783 21.0833 18.1775C21.6792 18.0125 22.3208 18.0125 22.9167 18.1775C23.2833 18.2783 23.5033 18.6541 23.4025 19.0208C23.32 19.3233 23.0358 19.525 22.7333 19.525Z" fill="white"/>
<path d="M22 31.8542C21.6242 31.8542 21.3125 31.5426 21.3125 31.1667V28.4167C21.3125 28.0409 21.6242 27.7292 22 27.7292C22.3758 27.7292 22.6875 28.0409 22.6875 28.4167V31.1667C22.6875 31.5426 22.3758 31.8542 22 31.8542Z" fill="white"/>
</svg>
