<svg width="44" height="44" viewBox="0 0 44 44" fill="none" xmlns="http://www.w3.org/2000/svg">
<circle cx="22" cy="22" r="22" fill="#8E24AA"/>
<path d="M24.7499 31.8541H19.2499C14.2724 31.8541 12.1458 29.7274 12.1458 24.7499V19.2499C12.1458 14.2724 14.2724 12.1458 19.2499 12.1458H24.7499C29.7274 12.1458 31.8541 14.2724 31.8541 19.2499V24.7499C31.8541 29.7274 29.7274 31.8541 24.7499 31.8541ZM19.2499 13.5208C15.0241 13.5208 13.5208 15.0241 13.5208 19.2499V24.7499C13.5208 28.9758 15.0241 30.4791 19.2499 30.4791H24.7499C28.9758 30.4791 30.4791 28.9758 30.4791 24.7499V19.2499C30.4791 15.0241 28.9758 13.5208 24.7499 13.5208H19.2499Z" fill="white"/>
<path d="M19.2501 20.8542C17.8567 20.8542 16.7292 19.7267 16.7292 18.3333C16.7292 16.94 17.8567 15.8125 19.2501 15.8125C20.6434 15.8125 21.7709 16.94 21.7709 18.3333C21.7709 19.7267 20.6434 20.8542 19.2501 20.8542ZM19.2501 17.1875C18.6176 17.1875 18.1042 17.7008 18.1042 18.3333C18.1042 18.9658 18.6176 19.4792 19.2501 19.4792C19.8826 19.4792 20.3959 18.9658 20.3959 18.3333C20.3959 17.7008 19.8826 17.1875 19.2501 17.1875Z" fill="white"/>
<path d="M13.4476 29.0584C13.2276 29.0584 13.0076 28.9484 12.8793 28.7559C12.6684 28.4443 12.7509 28.0134 13.0718 27.8026L17.5909 24.7684C18.5809 24.0993 19.9468 24.1818 20.8451 24.9426L21.1476 25.2084C21.6059 25.6026 22.3851 25.6026 22.8343 25.2084L26.6476 21.9359C27.6193 21.1018 29.1501 21.1018 30.131 21.9359L31.6251 23.2193C31.9093 23.4668 31.9459 23.8976 31.6985 24.1909C31.4509 24.4751 31.0201 24.5118 30.7268 24.2643L29.2326 22.9809C28.7743 22.5868 27.9951 22.5868 27.5368 22.9809L23.7235 26.2534C22.7518 27.0876 21.221 27.0876 20.2401 26.2534L19.9376 25.9876C19.5159 25.6301 18.8193 25.5934 18.3518 25.9143L13.8326 28.9484C13.7134 29.0218 13.5759 29.0584 13.4476 29.0584Z" fill="white"/>
</svg>
