<svg width="44" height="44" viewBox="0 0 44 44" fill="none" xmlns="http://www.w3.org/2000/svg">
<circle cx="22" cy="22" r="22" fill="#8E24AA"/>
<path d="M30.5525 18.2599C30.1767 18.2599 29.865 17.9483 29.865 17.5724V15.9041C29.865 15.2349 29.3242 14.6941 28.655 14.6941H15.345C14.6758 14.6941 14.135 15.2349 14.135 15.9041V17.5816C14.135 17.9574 13.8233 18.2691 13.4475 18.2691C13.0717 18.2691 12.76 17.9574 12.76 17.5724V15.9041C12.76 14.4741 13.9242 13.3191 15.345 13.3191H28.655C30.085 13.3191 31.24 14.4833 31.24 15.9041V17.5816C31.24 17.9574 30.9375 18.2599 30.5525 18.2599Z" fill="white"/>
<path d="M22 30.6809C21.6242 30.6809 21.3125 30.3692 21.3125 29.9934V14.7676C21.3125 14.3917 21.6242 14.0801 22 14.0801C22.3758 14.0801 22.6875 14.3917 22.6875 14.7676V29.9934C22.6875 30.3784 22.3758 30.6809 22 30.6809Z" fill="white"/>
<path d="M25.6118 30.6809H18.3884C18.0126 30.6809 17.7009 30.3692 17.7009 29.9934C17.7009 29.6176 18.0126 29.3059 18.3884 29.3059H25.6118C25.9876 29.3059 26.2993 29.6176 26.2993 29.9934C26.2993 30.3692 25.9876 30.6809 25.6118 30.6809Z" fill="white"/>
</svg>
