<svg width="121" height="120" viewBox="0 0 121 120" fill="none" xmlns="http://www.w3.org/2000/svg">
<circle cx="60.5" cy="60" r="60" fill="#8E24AA"/>
<path d="M60.4999 68.9167C62.0002 68.9167 63.2165 67.7004 63.2165 66.2001C63.2165 64.6997 62.0002 63.4834 60.4999 63.4834C58.9995 63.4834 57.7832 64.6997 57.7832 66.2001C57.7832 67.7004 58.9995 68.9167 60.4999 68.9167Z" fill="white"/>
<path d="M70.9663 55.8833V53.7999C70.9663 49.2999 69.883 43.3333 60.4997 43.3333C51.1163 43.3333 50.033 49.2999 50.033 53.7999V55.8833C45.3663 56.4666 43.833 58.8333 43.833 64.6499V67.7499C43.833 74.5833 45.9163 76.6666 52.7497 76.6666H68.2497C75.083 76.6666 77.1663 74.5833 77.1663 67.7499V64.6499C77.1663 58.8333 75.633 56.4666 70.9663 55.8833ZM60.4997 71.2333C57.7163 71.2333 55.4663 68.9666 55.4663 66.1999C55.4663 63.4166 57.733 61.1666 60.4997 61.1666C63.2663 61.1666 65.533 63.4333 65.533 66.1999C65.533 68.9833 63.283 71.2333 60.4997 71.2333ZM52.7497 55.7333C52.6163 55.7333 52.4997 55.7333 52.3663 55.7333V53.7999C52.3663 48.9166 53.7497 45.6666 60.4997 45.6666C67.2497 45.6666 68.633 48.9166 68.633 53.7999V55.7499C68.4997 55.7499 68.383 55.7499 68.2497 55.7499H52.7497V55.7333Z" fill="white"/>
</svg>
