<svg width="16" height="16" viewBox="0 0 16 16" fill="none" xmlns="http://www.w3.org/2000/svg">
<path d="M8.00004 10.8333C6.25337 10.8333 4.83337 9.41325 4.83337 7.66659V3.99992C4.83337 2.25325 6.25337 0.833252 8.00004 0.833252C9.74671 0.833252 11.1667 2.25325 11.1667 3.99992V7.66659C11.1667 9.41325 9.74671 10.8333 8.00004 10.8333ZM8.00004 1.83325C6.80671 1.83325 5.83337 2.80659 5.83337 3.99992V7.66659C5.83337 8.85992 6.80671 9.83325 8.00004 9.83325C9.19337 9.83325 10.1667 8.85992 10.1667 7.66659V3.99992C10.1667 2.80659 9.19337 1.83325 8.00004 1.83325Z" fill="#54597C"/>
<path d="M8.00002 13.1667C4.91336 13.1667 2.40002 10.6534 2.40002 7.56668V6.43335C2.40002 6.16002 2.62669 5.93335 2.90002 5.93335C3.17336 5.93335 3.40002 6.16002 3.40002 6.43335V7.56668C3.40002 10.1 5.46669 12.1667 8.00002 12.1667C10.5334 12.1667 12.6 10.1 12.6 7.56668V6.43335C12.6 6.16002 12.8267 5.93335 13.1 5.93335C13.3734 5.93335 13.6 6.16002 13.6 6.43335V7.56668C13.6 10.6534 11.0867 13.1667 8.00002 13.1667Z" fill="#54597C"/>
<path d="M8.92667 4.78655C8.87333 4.78655 8.81333 4.77988 8.75333 4.75988C8.26667 4.57988 7.73333 4.57988 7.24667 4.75988C6.98667 4.85322 6.7 4.71988 6.60667 4.45988C6.51333 4.19988 6.64667 3.91322 6.90667 3.81988C7.61333 3.56655 8.39333 3.56655 9.1 3.81988C9.36 3.91322 9.49333 4.19988 9.4 4.45988C9.32 4.65988 9.12667 4.78655 8.92667 4.78655Z" fill="#54597C"/>
<path d="M8.5333 6.19988C8.48664 6.19988 8.44664 6.19322 8.39997 6.17988C8.1333 6.10655 7.85997 6.10655 7.5933 6.17988C7.32664 6.25322 7.0533 6.09322 6.97997 5.82655C6.90664 5.56655 7.06664 5.29322 7.3333 5.21988C7.76664 5.09988 8.2333 5.09988 8.66664 5.21988C8.9333 5.29322 9.0933 5.56655 9.01997 5.83322C8.95997 6.05322 8.7533 6.19988 8.5333 6.19988Z" fill="#54597C"/>
<path d="M8 15.1667C7.72667 15.1667 7.5 14.9401 7.5 14.6667V12.6667C7.5 12.3934 7.72667 12.1667 8 12.1667C8.27333 12.1667 8.5 12.3934 8.5 12.6667V14.6667C8.5 14.9401 8.27333 15.1667 8 15.1667Z" fill="#54597C"/>
</svg>
