<svg width="317" height="186" viewBox="0 0 317 186" fill="none" xmlns="http://www.w3.org/2000/svg">
<g filter="url(#filter0_d_72_2415)">
<rect x="115" y="68" width="125" height="60" rx="16" fill="#8E24AA" shape-rendering="crispEdges"/>
<path d="M158.57 94.5099L150.01 90.2299C144.26 87.3499 141.9 89.7099 144.78 95.4599L145.65 97.1999C145.9 97.7099 145.9 98.2999 145.65 98.8099L144.78 100.54C141.9 106.29 144.25 108.65 150.01 105.77L158.57 101.49C162.41 99.5699 162.41 96.4299 158.57 94.5099ZM155.34 98.7499H149.94C149.53 98.7499 149.19 98.4099 149.19 97.9999C149.19 97.5899 149.53 97.2499 149.94 97.2499H155.34C155.75 97.2499 156.09 97.5899 156.09 97.9999C156.09 98.4099 155.75 98.7499 155.34 98.7499Z" fill="white"/>
<path d="M174.584 105.216C173.732 105.216 172.94 105.06 172.208 104.748C171.488 104.436 170.864 104.004 170.336 103.452C169.82 102.888 169.442 102.234 169.202 101.49L171.236 100.608C171.56 101.376 172.028 101.982 172.64 102.426C173.252 102.858 173.942 103.074 174.71 103.074C175.142 103.074 175.514 103.008 175.826 102.876C176.15 102.732 176.396 102.54 176.564 102.3C176.744 102.06 176.834 101.772 176.834 101.436C176.834 101.04 176.714 100.716 176.474 100.464C176.246 100.2 175.898 99.996 175.43 99.852L172.856 99.024C171.812 98.7 171.026 98.214 170.498 97.566C169.97 96.918 169.706 96.156 169.706 95.28C169.706 94.512 169.892 93.834 170.264 93.246C170.648 92.658 171.176 92.202 171.848 91.878C172.532 91.542 173.312 91.374 174.188 91.374C174.992 91.374 175.73 91.518 176.402 91.806C177.074 92.082 177.65 92.472 178.13 92.976C178.622 93.468 178.988 94.05 179.228 94.722L177.212 95.622C176.948 94.95 176.552 94.434 176.024 94.074C175.496 93.702 174.884 93.516 174.188 93.516C173.78 93.516 173.42 93.588 173.108 93.732C172.796 93.864 172.55 94.056 172.37 94.308C172.202 94.548 172.118 94.836 172.118 95.172C172.118 95.544 172.238 95.874 172.478 96.162C172.718 96.438 173.084 96.654 173.576 96.81L176.042 97.584C177.11 97.932 177.908 98.412 178.436 99.024C178.976 99.636 179.246 100.392 179.246 101.292C179.246 102.06 179.048 102.738 178.652 103.326C178.256 103.914 177.71 104.376 177.014 104.712C176.318 105.048 175.508 105.216 174.584 105.216ZM185.896 105.216C184.888 105.216 184.006 104.988 183.25 104.532C182.494 104.076 181.906 103.458 181.486 102.678C181.066 101.898 180.856 101.034 180.856 100.086C180.856 99.102 181.066 98.232 181.486 97.476C181.918 96.708 182.5 96.102 183.232 95.658C183.976 95.214 184.804 94.992 185.716 94.992C186.484 94.992 187.156 95.118 187.732 95.37C188.32 95.622 188.818 95.97 189.226 96.414C189.634 96.858 189.946 97.368 190.162 97.944C190.378 98.508 190.486 99.12 190.486 99.78C190.486 99.948 190.474 100.122 190.45 100.302C190.438 100.482 190.408 100.638 190.36 100.77H182.8V98.97H189.028L187.912 99.816C188.02 99.264 187.99 98.772 187.822 98.34C187.666 97.908 187.402 97.566 187.03 97.314C186.67 97.062 186.232 96.936 185.716 96.936C185.224 96.936 184.786 97.062 184.402 97.314C184.018 97.554 183.724 97.914 183.52 98.394C183.328 98.862 183.256 99.432 183.304 100.104C183.256 100.704 183.334 101.238 183.538 101.706C183.754 102.162 184.066 102.516 184.474 102.768C184.894 103.02 185.374 103.146 185.914 103.146C186.454 103.146 186.91 103.032 187.282 102.804C187.666 102.576 187.966 102.27 188.182 101.886L190.09 102.822C189.898 103.29 189.598 103.704 189.19 104.064C188.782 104.424 188.296 104.706 187.732 104.91C187.18 105.114 186.568 105.216 185.896 105.216ZM192.274 105V95.208H194.488V97.134L194.308 96.792C194.536 96.204 194.908 95.76 195.424 95.46C195.952 95.148 196.564 94.992 197.26 94.992C197.98 94.992 198.616 95.148 199.168 95.46C199.732 95.772 200.17 96.21 200.482 96.774C200.794 97.326 200.95 97.968 200.95 98.7V105H198.592V99.258C198.592 98.826 198.508 98.454 198.34 98.142C198.172 97.83 197.938 97.59 197.638 97.422C197.35 97.242 197.008 97.152 196.612 97.152C196.228 97.152 195.886 97.242 195.586 97.422C195.286 97.59 195.052 97.83 194.884 98.142C194.716 98.454 194.632 98.826 194.632 99.258V105H192.274ZM207.498 105.216C206.55 105.216 205.704 104.994 204.96 104.55C204.216 104.094 203.628 103.476 203.196 102.696C202.764 101.916 202.548 101.052 202.548 100.104C202.548 99.144 202.764 98.28 203.196 97.512C203.628 96.744 204.216 96.132 204.96 95.676C205.716 95.22 206.556 94.992 207.48 94.992C208.224 94.992 208.884 95.142 209.46 95.442C210.048 95.73 210.51 96.138 210.846 96.666L210.486 97.152V91.374H212.844V105H210.612V103.11L210.864 103.578C210.528 104.106 210.06 104.514 209.46 104.802C208.86 105.078 208.206 105.216 207.498 105.216ZM207.75 103.056C208.29 103.056 208.764 102.93 209.172 102.678C209.58 102.426 209.898 102.078 210.126 101.634C210.366 101.19 210.486 100.68 210.486 100.104C210.486 99.54 210.366 99.036 210.126 98.592C209.898 98.136 209.58 97.782 209.172 97.53C208.764 97.278 208.29 97.152 207.75 97.152C207.222 97.152 206.748 97.284 206.328 97.548C205.908 97.8 205.578 98.148 205.338 98.592C205.11 99.024 204.996 99.528 204.996 100.104C204.996 100.68 205.11 101.19 205.338 101.634C205.578 102.078 205.908 102.426 206.328 102.678C206.748 102.93 207.222 103.056 207.75 103.056Z" fill="white"/>
</g>
<defs>
<filter id="filter0_d_72_2415" x="0" y="0" width="317" height="252" filterUnits="userSpaceOnUse" color-interpolation-filters="sRGB">
<feFlood flood-opacity="0" result="BackgroundImageFix"/>
<feColorMatrix in="SourceAlpha" type="matrix" values="0 0 0 0 0 0 0 0 0 0 0 0 0 0 0 0 0 0 127 0" result="hardAlpha"/>
<feOffset dx="-19" dy="28"/>
<feGaussianBlur stdDeviation="48"/>
<feComposite in2="hardAlpha" operator="out"/>
<feColorMatrix type="matrix" values="0 0 0 0 0.556863 0 0 0 0 0.141176 0 0 0 0 0.666667 0 0 0 0.2 0"/>
<feBlend mode="normal" in2="BackgroundImageFix" result="effect1_dropShadow_72_2415"/>
<feBlend mode="normal" in="SourceGraphic" in2="effect1_dropShadow_72_2415" result="shape"/>
</filter>
</defs>
</svg>
