<svg width="16" height="16" viewBox="0 0 16 16" fill="none" xmlns="http://www.w3.org/2000/svg">
<path d="M14.22 5.2801C13.9467 5.2801 13.72 5.05343 13.72 4.7801V3.56677C13.72 3.0801 13.3267 2.68677 12.84 2.68677H3.16003C2.67336 2.68677 2.28003 3.0801 2.28003 3.56677V4.78677C2.28003 5.0601 2.05336 5.28677 1.78003 5.28677C1.5067 5.28677 1.28003 5.0601 1.28003 4.7801V3.56677C1.28003 2.52677 2.1267 1.68677 3.16003 1.68677H12.84C13.88 1.68677 14.72 2.53343 14.72 3.56677V4.78677C14.72 5.0601 14.5 5.2801 14.22 5.2801Z" fill="#54597C"/>
<path d="M8 14.3133C7.72667 14.3133 7.5 14.0867 7.5 13.8133V2.73999C7.5 2.46666 7.72667 2.23999 8 2.23999C8.27333 2.23999 8.5 2.46666 8.5 2.73999V13.8133C8.5 14.0933 8.27333 14.3133 8 14.3133Z" fill="#54597C"/>
<path d="M10.6266 14.3132H5.37329C5.09996 14.3132 4.87329 14.0866 4.87329 13.8132C4.87329 13.5399 5.09996 13.3132 5.37329 13.3132H10.6266C10.9 13.3132 11.1266 13.5399 11.1266 13.8132C11.1266 14.0866 10.9 14.3132 10.6266 14.3132Z" fill="#54597C"/>
</svg>
