<svg width="16" height="16" viewBox="0 0 16 16" fill="none" xmlns="http://www.w3.org/2000/svg">
<path d="M10 15.1666H6.00004C2.38004 15.1666 0.833374 13.6199 0.833374 9.99992V5.99992C0.833374 2.37992 2.38004 0.833252 6.00004 0.833252H10C13.62 0.833252 15.1667 2.37992 15.1667 5.99992V9.99992C15.1667 13.6199 13.62 15.1666 10 15.1666ZM6.00004 1.83325C2.92671 1.83325 1.83337 2.92659 1.83337 5.99992V9.99992C1.83337 13.0733 2.92671 14.1666 6.00004 14.1666H10C13.0734 14.1666 14.1667 13.0733 14.1667 9.99992V5.99992C14.1667 2.92659 13.0734 1.83325 10 1.83325H6.00004Z" fill="#54597C"/>
<path d="M5.99996 7.16667C4.98663 7.16667 4.16663 6.34667 4.16663 5.33333C4.16663 4.32 4.98663 3.5 5.99996 3.5C7.01329 3.5 7.83329 4.32 7.83329 5.33333C7.83329 6.34667 7.01329 7.16667 5.99996 7.16667ZM5.99996 4.5C5.53996 4.5 5.16663 4.87333 5.16663 5.33333C5.16663 5.79333 5.53996 6.16667 5.99996 6.16667C6.45996 6.16667 6.83329 5.79333 6.83329 5.33333C6.83329 4.87333 6.45996 4.5 5.99996 4.5Z" fill="#54597C"/>
<path d="M1.78005 13.1333C1.62005 13.1333 1.46005 13.0533 1.36672 12.9133C1.21338 12.6866 1.27338 12.3733 1.50672 12.22L4.79338 10.0133C5.51338 9.52662 6.50672 9.58662 7.16005 10.14L7.38005 10.3333C7.71338 10.62 8.28005 10.62 8.60672 10.3333L11.3801 7.95329C12.0867 7.34662 13.2001 7.34662 13.9134 7.95329L15.0001 8.88662C15.2067 9.06662 15.2334 9.37996 15.0534 9.59329C14.8734 9.79996 14.5601 9.82662 14.3467 9.64662L13.2601 8.71329C12.9267 8.42662 12.3601 8.42662 12.0267 8.71329L9.25339 11.0933C8.54672 11.7 7.43338 11.7 6.72005 11.0933L6.50005 10.9C6.19338 10.64 5.68672 10.6133 5.34672 10.8466L2.06005 13.0533C1.97338 13.1066 1.87338 13.1333 1.78005 13.1333Z" fill="#54597C"/>
</svg>
